# xmcd
#
# Track frame offsets:
#	150
#	31740
#	63640
#	91860
#	111290
#	136370
#	155047
#	175712
#	197997
#	239225
#	262030
#	295080
#
# Disc length: 4334 seconds
#
# Revision: 1
# Processed by: cddbd v1.4PL0 Copyright (c) Steve Scherf et al.
# Submitted via: EasyCDDAExtractor 5.0.7
#
DISCID=b310ec0c
DTITLE=Dead Or Alive - Nukleopatra
DYEAR=1900
DGENRE=
TTITLE0=International Thing(Nukleopatra Singapore CD Version)
TTITLE1=Nukelopatra(Nukleopatra Singapore CD Version)
TTITLE2=Unhappy Birthday(Nukleopatra Singapore CD Version)
TTITLE3=Rebel Rebel(Nukleopatra Singapore CD Version)
TTITLE4=Sleep With You(Nukleopatra Singapore CD Version)
TTITLE5=The Right Stuff(Nukleopatra Singapore CD Version)
TTITLE6=I'm A Star(Nukleopatra Singapore CD Version)
TTITLE7=Picture This(Nukleopatra Singapore CD Version)
TTITLE8=Spend The Night Together(Nukleopatra Singapore CD Version)
TTITLE9=Gone Too Long(Nukleopatra Singapore CD Version)
TTITLE10=Getting It On(Nukleopatra Singapore CD Version)
TTITLE11=Sex Drive(Nukleopatra Singapore CD Version)
EXTD=
EXTT0=
EXTT1=
EXTT2=
EXTT3=
EXTT4=
EXTT5=
EXTT6=
EXTT7=
EXTT8=
EXTT9=
EXTT10=
EXTT11=
PLAYORDER=
